<svg
  xmlns="http://www.w3.org/2000/svg"
  viewBox="0 0 640 512"
  width="35"
  height="35"
>
  <!-- Capa inferior -->
  <g class="layer layer-1">
    <path
      d="M320 8.2c-12.5-5.6-26.4-5.6-38.8 0L23.9 120.9c-20.7 9.3-20.7 39 0 48.4L281.2 279c12.5 5.6 26.4 5.6 38.8 0l257.3-109.7c20.7-9.3 20.7-39 0-48.4L320 8.2z"
      fill="#fff"
    ></path>
  </g>

  <!-- Capa del medio -->
  <g class="layer layer-2">
    <path
      d="M320 318.4L38.6 208.8c-6.6-2.8-14.4-1.8-20.5 2.4-6 4.2-9.7 10.9-9.7 18v48.5c0 8.5 5 16.2 12.7 19.7l273.4 116.7c12.5 5.3 26.4 5.3 38.8 0l273.4-116.7c7.7-3.5 12.7-11.2 12.7-19.7v-48.5c0-7.1-3.7-13.8-9.7-18-6.1-4.2-13.9-5.2-20.5-2.4L320 318.4z"
      fill="#fcba03"
    ></path>
  </g>

  <!-- Capa superior -->
  <g class="layer layer-3">
    <path
      d="M320 481.2L38.6 371.6c-6.6-2.8-14.4-1.8-20.5 2.4-6 4.2-9.7 10.9-9.7 18v48.5c0 8.5 5 16.2 12.7 19.7L345.5 495c25 10.6 54.1 10.6 79.2 0l273.4-116.7c7.7-3.5 12.7-11.2 12.7-19.7v-48.5c0-7.1-3.7-13.8-9.7-18-6.1-4.2-13.9-5.2-20.5-2.4L320 481.2z"
      fill="#fc034e"
    ></path>
  </g>

  <!-- Animaciones -->
  <style>
    .layer {
      animation: moveLayers 0.5s ease-in-out infinite;
    }

    .layer-1 {
      animation-delay: 0s;
    }
    .layer-2 {
      animation-delay: 0.2s;
    }
    .layer-3 {
      animation-delay: 0.4s;
    }

    @keyframes moveLayers {
      0% {
        transform: translateY(0);
      }
      50% {
        transform: translateY(-10px);
      }
      100% {
        transform: translateY(0);
      }
    }
  </style>
</svg>
